<?xml version="1.0" encoding="UTF-8" standalone="no"?>
<!-- Created with Inkscape (http://www.inkscape.org/) -->

<svg
   xmlns:dc="http://purl.org/dc/elements/1.1/"
   xmlns:cc="http://creativecommons.org/ns#"
   xmlns:rdf="http://www.w3.org/1999/02/22-rdf-syntax-ns#"
   xmlns:svg="http://www.w3.org/2000/svg"
   xmlns="http://www.w3.org/2000/svg"
   xmlns:xlink="http://www.w3.org/1999/xlink"
   xmlns:sodipodi="http://sodipodi.sourceforge.net/DTD/sodipodi-0.dtd"
   xmlns:inkscape="http://www.inkscape.org/namespaces/inkscape"
   width="210mm"
   height="297mm"
   viewBox="0 0 744.09448819 1052.3622047"
   id="svg2"
   version="1.1"
   inkscape:version="0.91 r13725"
   sodipodi:docname="app_icon.svg">
  <defs
     id="defs4">
    <linearGradient
       inkscape:collect="always"
       id="linearGradient4216">
      <stop
         style="stop-color:#45ff35;stop-opacity:1"
         offset="0"
         id="stop4218" />
      <stop
         style="stop-color:#f4ffc8;stop-opacity:1"
         offset="1"
         id="stop4220" />
    </linearGradient>
    <linearGradient
       inkscape:collect="always"
       xlink:href="#linearGradient4216"
       id="linearGradient4222"
       x1="122.48643"
       y1="472.36365"
       x2="700.03217"
       y2="472.36365"
       gradientUnits="userSpaceOnUse"
       gradientTransform="matrix(0.96962019,0,0,1.0005807,1.2346895,-0.27575262)" />
  </defs>
  <sodipodi:namedview
     id="base"
     pagecolor="#ffffff"
     bordercolor="#666666"
     borderopacity="1.0"
     inkscape:pageopacity="0.0"
     inkscape:pageshadow="2"
     inkscape:zoom="0.98994949"
     inkscape:cx="440.23752"
     inkscape:cy="534.37194"
     inkscape:document-units="px"
     inkscape:current-layer="layer1"
     showgrid="true"
     showguides="false"
     inkscape:window-width="1920"
     inkscape:window-height="1017"
     inkscape:window-x="-8"
     inkscape:window-y="-8"
     inkscape:window-maximized="1">
    <inkscape:grid
       type="xygrid"
       id="grid4173" />
  </sodipodi:namedview>
  <metadata
     id="metadata7">
    <rdf:RDF>
      <cc:Work
         rdf:about="">
        <dc:format>image/svg+xml</dc:format>
        <dc:type
           rdf:resource="http://purl.org/dc/dcmitype/StillImage" />
        <dc:title></dc:title>
      </cc:Work>
    </rdf:RDF>
  </metadata>
  <g
     inkscape:label="Layer 1"
     inkscape:groupmode="layer"
     id="layer1">
    <path
       style="fill:url(#linearGradient4222);fill-opacity:1;stroke:#000000;stroke-width:23.64450455;stroke-linecap:butt;stroke-linejoin:miter;stroke-miterlimit:4;stroke-dasharray:none;stroke-dashoffset:0;stroke-opacity:1"
       d="m 70.11618,164.42266 433.72,-0.20203 c 23.46754,-1.2e-4 162.7181,311.88861 162.7181,311.88861 0,0 -139.25056,309.4729 -162.7181,309.47299 l -433.972538,0 c -13.001069,0 -23.467529,-10.62502 -23.467529,-23.82281 l 0,-571.74628 c 0,-13.19778 10.718977,-25.58442 23.720067,-25.59048 z"
       id="rect4181"
       inkscape:connector-curvature="0"
       sodipodi:nodetypes="scccssss"
       inkscape:export-xdpi="90"
       inkscape:export-ydpi="90" />
    <path
       style="fill:#000000;fill-opacity:1"
       d="m 112.07501,731.75207 c -8.84556,-1.8779 -16.86585,-8.28 -20.68349,-16.5104 -3.045773,-6.5663 -3.206603,-16.7201 -0.36424,-22.9966 1.0392,-2.2948 14.30564,-24.9904 29.48096,-50.4348 l 27.5915,-46.26245 22.892,-101.24934 c 12.5906,-55.68713 22.77556,-101.59863 22.63326,-102.02553 -0.14231,-0.42691 -5.73605,3.65702 -12.43054,9.07542 -6.69449,5.4184 -13.28339,10.72587 -14.64199,11.79439 -2.35715,1.85386 -2.84241,3.64437 -10.60509,39.13043 -4.4742,20.45322 -8.68599,38.37275 -9.35954,39.82118 -7.03896,15.13694 -27.23127,16.26652 -34.58079,1.93449 -3.46085,-6.74889 -3.32313,-7.81615 6.9869,-54.14258 5.32074,-23.9079 10.2946,-44.89808 11.05302,-46.64486 0.75842,-1.74678 2.80414,-4.55789 4.54604,-6.24691 1.7419,-1.68902 22.34101,-18.57873 45.77579,-37.53268 44.42499,-35.93075 48.92599,-39.05474 59.39062,-41.22099 14.28493,-2.95707 27.92134,1.40147 38.93338,12.44413 6.09504,6.11198 6.34701,6.55645 28.14494,49.64546 12.09716,23.91304 22.63397,44.12345 23.41512,44.91202 0.78115,0.78858 14.13767,10.14013 29.68115,20.78124 15.54348,10.6411 29.1931,20.16982 30.33248,21.17493 2.61832,2.30975 6.1696,9.75857 6.18075,12.96414 0.0425,12.20643 -10.72229,22.00466 -22.09992,20.11561 -1.94906,-0.3236 -4.71766,-1.18926 -6.15244,-1.92367 -5.55042,-2.84108 -67.07821,-45.71945 -69.21487,-48.23546 -1.24208,-1.46261 -5.7334,-9.64387 -9.98068,-18.18058 -4.2473,-8.5367 -7.9267,-15.52042 -8.17645,-15.51937 -0.68577,0.003 -19.36492,83.06184 -19.01694,84.56105 0.16609,0.7156 17.12807,21.14645 37.69329,45.40189 20.56522,24.25543 38.25096,45.77167 39.30163,47.81385 1.35996,2.64331 4.95274,19.71971 12.47043,59.27149 11.82559,62.2165 11.96754,63.6069 7.43915,72.8626 -4.40478,9.003 -15.75212,16.1742 -25.59338,16.1742 -11.31284,0 -22.77422,-7.8995 -27.02633,-18.6272 -0.96276,-2.429 -6.10533,-27.2938 -11.42793,-55.2551 -7.9111,-41.55951 -10.01943,-51.26354 -11.55096,-53.16571 -3.69957,-4.59492 -60.1258,-65.85912 -60.40298,-65.58194 -0.15589,0.15589 -3.54771,15.3269 -7.53737,33.71335 -6.13028,28.25158 -7.7295,34.35999 -10.32408,39.43412 -7.17337,14.02872 -63.21696,107.01738 -66.58389,110.47738 -6.56052,6.7418 -17.32587,10.1343 -26.18851,8.2528 z M 252.32834,297.67232 c -7.00645,-1.38214 -15.12621,-6.00593 -21.15623,-12.04739 -6.85292,-6.86594 -10.56345,-14.12846 -12.20267,-23.88393 -2.17995,-12.9736 2.3348,-26.3164 12.25184,-36.20884 17.26093,-17.21812 42.84905,-17.23739 60.11236,-0.0453 9.39883,9.36006 13.50382,19.92046 12.69918,32.66962 -1.64963,26.13787 -25.83202,44.61956 -51.70448,39.5158 z"
       id="path4214"
       inkscape:connector-curvature="0"
       inkscape:export-xdpi="90"
       inkscape:export-ydpi="90" />
    <path
       style="fill:#000000;fill-opacity:1;stroke:#006500;stroke-width:0;stroke-linecap:butt;stroke-linejoin:round;stroke-miterlimit:4;stroke-dasharray:none;stroke-dashoffset:0;stroke-opacity:1"
       inkscape:transform-center-x="-23.796926"
       inkscape:transform-center-y="-10.506631"
       d="M 625.05843,473.2966 492.61542,734.64753 391.73605,734.47962 527.20996,473.2966 390.88893,213.2103 492.6154,213.0424 c -1.44868,0.14504 132.44303,260.25411 132.44303,260.2542 z"
       id="path4211"
       inkscape:connector-curvature="0"
       sodipodi:nodetypes="ccccccc"
       inkscape:export-xdpi="90"
       inkscape:export-ydpi="90" />
  </g>
</svg>
